<?xml version="1.0" standalone="no"?>
<!DOCTYPE svg PUBLIC "-//W3C//DTD SVG 20010904//EN"
 "http://www.w3.org/TR/2001/REC-SVG-20010904/DTD/svg10.dtd">
<svg version="1.0" xmlns="http://www.w3.org/2000/svg"
 width="2000.000000pt" height="2000.000000pt" viewBox="0 0 2000.000000 2000.000000"
 preserveAspectRatio="xMidYMid meet">
<metadata>
Created by potrace 1.11, written by Peter Selinger 2001-2013
</metadata>
<g transform="translate(0.000000,2000.000000) scale(0.100000,-0.100000)"
fill="#000000" stroke="none">
<path d="M11487 19944 c-1 -2 -34 -4 -72 -5 -96 -3 -237 -38 -340 -84 -16 -7
-73 -30 -125 -51 -143 -56 -182 -85 -379 -278 -212 -207 -276 -291 -433 -566
-15 -25 -72 -108 -127 -185 -55 -77 -110 -153 -121 -170 -71 -104 -138 -187
-207 -259 -64 -66 -151 -167 -191 -221 -38 -53 -102 -126 -178 -205 -50 -52
-104 -108 -119 -125 -40 -43 -137 -173 -165 -220 -55 -93 -163 -216 -372 -427
-123 -123 -250 -259 -282 -303 -74 -99 -95 -124 -212 -250 -89 -96 -126 -140
-169 -200 -22 -30 -116 -147 -125 -155 -39 -34 -178 -234 -239 -344 -210 -374
-375 -726 -386 -824 -3 -26 -8 -69 -11 -97 -8 -71 -24 -122 -45 -141 -16 -14
-22 -11 -81 48 -35 35 -93 108 -129 164 -62 98 -243 345 -382 523 -101 128
-226 250 -373 362 -95 74 -204 175 -406 377 -246 248 -292 299 -348 382 -8 12
-20 28 -25 34 -6 6 -21 25 -33 41 -42 54 -1176 1186 -1220 1217 -106 74 -238
109 -392 103 -58 -1 -114 -5 -125 -8 -88 -22 -111 -33 -171 -84 -60 -51 -160
-151 -214 -213 -12 -14 -47 -54 -78 -89 -31 -35 -59 -68 -60 -73 -2 -5 -65
-50 -140 -100 -211 -141 -308 -247 -358 -393 -25 -74 -50 -207 -47 -245 12
-129 75 -245 207 -375 169 -168 218 -186 496 -182 172 2 188 4 234 26 95 47
316 295 316 356 0 8 4 16 9 19 21 13 44 175 39 278 -5 122 -17 153 -110 280
-69 94 -107 171 -112 222 -3 30 1 40 25 60 24 20 37 24 82 21 90 -5 134 -24
176 -74 53 -65 78 -109 109 -193 l27 -73 6 -500 c6 -476 7 -504 28 -580 17
-60 23 -114 26 -219 4 -154 9 -201 31 -296 9 -36 17 -78 19 -94 3 -15 7 -35 9
-45 3 -9 8 -31 11 -50 3 -19 8 -37 10 -40 2 -4 6 -25 10 -48 15 -105 104 -436
173 -648 88 -268 166 -452 346 -814 136 -275 188 -362 257 -436 21 -22 76 -91
123 -153 134 -177 796 -832 841 -832 15 0 120 -74 160 -114 61 -59 61 -57 -16
-266 -37 -103 -56 -171 -65 -239 -2 -19 -11 -64 -20 -100 -8 -36 -19 -88 -25
-116 -9 -49 -13 -468 -5 -515 3 -14 7 -43 11 -65 3 -22 15 -69 27 -105 12 -36
21 -66 20 -68 -1 -1 13 -32 32 -70 65 -129 152 -227 341 -384 54 -46 107 -96
116 -113 22 -39 28 -95 30 -289 1 -126 -1 -160 -12 -166 -8 -5 -140 -10 -294
-13 l-280 -4 -205 -42 c-113 -23 -269 -58 -346 -76 -78 -19 -190 -44 -249 -56
-128 -24 -192 -47 -342 -123 -62 -31 -166 -77 -230 -102 -152 -61 -165 -68
-448 -257 -336 -224 -592 -416 -668 -502 -10 -11 -38 -40 -61 -65 -100 -106
-250 -342 -295 -465 -41 -109 -47 -174 -45 -450 1 -143 5 -277 7 -297 5 -34 3
-38 -16 -39 -12 0 -31 -2 -41 -4 -11 -2 -53 -6 -95 -9 -214 -15 -280 -40 -416
-160 -99 -87 -129 -119 -165 -171 -28 -41 -63 -115 -54 -115 3 0 0 -9 -6 -19
-30 -57 -31 -210 -1 -308 15 -52 60 -135 99 -183 104 -129 255 -260 345 -300
170 -75 393 -52 536 54 46 34 152 137 187 182 16 20 34 42 40 48 5 6 23 36 38
68 29 59 32 82 39 350 2 59 6 110 10 114 3 3 93 7 199 9 207 4 248 10 406 66
142 49 229 97 364 198 133 100 292 184 479 254 149 56 198 63 414 62 l170 0 6
-37 c3 -20 5 -76 4 -125 -2 -102 -24 -164 -75 -210 -18 -15 -38 -33 -44 -39
-7 -6 -48 -37 -91 -68 -91 -64 -76 -54 -220 -147 -196 -127 -245 -170 -605
-534 -161 -163 -167 -171 -290 -335 -51 -69 -106 -142 -122 -162 -15 -20 -28
-39 -28 -42 0 -2 -17 -31 -39 -63 -71 -108 -117 -197 -193 -378 -89 -209 -138
-337 -174 -456 -31 -102 -29 -95 -38 -144 -4 -22 -12 -51 -16 -65 -28 -77 -35
-185 -34 -520 1 -280 2 -311 22 -382 29 -104 67 -183 181 -375 53 -90 102
-174 109 -187 11 -22 20 -122 11 -130 -2 -2 -49 -24 -104 -51 -129 -61 -206
-113 -278 -189 -65 -70 -106 -144 -143 -266 -42 -138 -33 -261 33 -422 27 -67
50 -102 108 -167 167 -183 258 -237 511 -299 137 -34 230 -9 420 114 46 29 97
65 114 81 70 62 180 265 198 365 14 72 7 181 -17 290 -15 67 -19 94 -27 168
-7 78 -13 72 106 96 143 28 283 71 360 110 106 52 302 220 397 339 51 65 69
95 141 240 88 176 107 220 142 325 37 109 29 90 150 360 97 217 179 379 239
470 58 90 314 340 398 389 150 89 311 133 478 133 55 -1 111 -3 125 -7 14 -3
41 -8 60 -11 64 -11 186 -63 241 -104 54 -40 160 -147 205 -205 38 -50 71
-125 97 -220 53 -190 59 -235 63 -412 3 -183 6 -219 28 -298 24 -83 29 -150
31 -395 1 -177 6 -255 18 -315 18 -83 19 -90 33 -165 4 -25 8 -47 9 -50 1 -3
5 -23 9 -45 18 -92 80 -324 106 -394 117 -313 173 -438 228 -508 63 -80 332
-344 407 -401 103 -77 225 -133 459 -211 215 -72 242 -85 282 -137 l23 -30
-61 -69 c-144 -166 -242 -366 -239 -494 1 -54 25 -139 53 -188 69 -120 287
-343 380 -387 170 -83 441 -60 608 49 73 49 158 129 200 190 98 143 139 315
106 445 -34 136 -71 206 -162 311 -54 63 -94 141 -94 185 0 37 -17 30 255 119
209 69 350 130 444 192 82 54 418 394 473 478 97 151 152 277 215 495 70 238
82 286 109 415 43 206 45 225 45 409 -1 143 4 199 20 275 11 53 24 119 30 146
5 28 9 129 9 225 -3 338 -1 372 25 463 40 137 129 269 287 424 146 145 207
186 312 212 50 12 250 16 296 6 14 -3 41 -8 60 -11 66 -11 226 -74 295 -117
36 -22 119 -91 173 -144 175 -172 339 -425 422 -653 17 -47 71 -168 120 -270
50 -104 113 -256 143 -347 81 -238 95 -261 286 -455 236 -240 260 -256 495
-319 125 -33 220 -76 261 -116 26 -27 27 -30 21 -102 -4 -41 -8 -77 -10 -80
-2 -3 -7 -22 -10 -41 -3 -19 -8 -46 -11 -60 -15 -69 -12 -188 6 -260 44 -172
119 -266 317 -397 257 -170 359 -182 584 -67 175 88 312 222 407 396 74 136
97 239 76 348 -12 69 -58 186 -92 237 -81 123 -282 290 -413 345 l-52 22 6 43
c7 55 33 106 111 218 116 167 216 389 272 605 3 14 7 99 9 190 3 183 -1 208
-64 415 -22 72 -45 165 -52 208 -19 126 -69 281 -145 452 -7 17 -30 73 -50
125 -85 216 -187 390 -382 652 -120 160 -170 216 -427 472 -316 316 -328 327
-461 406 -104 62 -176 113 -225 161 -19 19 -53 47 -75 63 -54 39 -115 104
-126 135 -38 98 2 221 81 253 34 14 221 18 297 7 105 -15 256 -73 425 -164 90
-48 174 -95 188 -105 153 -105 223 -148 264 -164 27 -10 95 -41 150 -69 218
-107 287 -125 474 -129 159 -2 155 3 157 -186 3 -205 36 -278 198 -435 155
-150 253 -192 452 -190 44 0 100 3 124 7 214 35 409 231 501 505 43 129 29
226 -56 400 -45 92 -69 128 -118 176 -99 98 -243 161 -458 201 -69 13 -98 22
-101 34 -4 16 -3 77 7 310 6 145 -1 191 -50 337 -53 159 -132 312 -232 453
-59 82 -79 105 -177 205 -93 94 -115 113 -222 191 -43 32 -80 60 -83 64 -3 3
-63 48 -135 101 -293 214 -472 322 -661 398 -54 21 -139 58 -189 81 -162 76
-261 109 -487 165 -210 53 -371 90 -428 101 -14 2 -54 11 -90 19 -36 8 -81 17
-100 20 -31 5 -78 13 -177 30 -16 3 -64 9 -108 15 -44 6 -91 13 -105 15 -30 4
-210 20 -270 24 -13 1 -15 25 -14 159 2 257 4 261 182 403 230 183 272 239
336 452 20 64 49 151 65 194 41 107 53 163 56 269 5 183 -65 494 -154 678 -22
45 -46 97 -54 117 -18 43 -18 115 -2 149 16 31 84 95 145 135 164 109 223 161
502 442 252 253 316 323 421 463 187 250 301 425 346 530 41 97 62 141 144
310 44 91 93 194 109 230 27 60 181 510 192 562 3 13 17 66 31 118 32 120 53
242 59 345 3 44 28 190 57 325 l52 245 2 465 c2 459 3 466 28 575 14 61 28
144 31 185 8 93 29 159 74 230 59 93 103 120 197 120 42 0 104 -31 106 -52 6
-63 4 -83 -11 -125 -9 -26 -37 -82 -62 -124 -80 -135 -126 -246 -143 -347 -3
-19 -6 -37 -7 -40 -4 -14 13 -98 32 -158 67 -219 177 -337 395 -425 70 -28 94
-32 199 -36 225 -9 300 23 483 206 118 117 154 171 174 258 12 56 15 194 4
273 -25 189 -138 336 -361 468 -129 76 -137 84 -239 215 -37 48 -97 118 -134
155 -181 183 -275 233 -440 235 -134 1 -294 -57 -401 -145 -30 -24 -238 -229
-462 -454 -297 -298 -441 -451 -532 -564 -155 -192 -689 -727 -876 -877 -125
-100 -205 -176 -395 -374 -128 -134 -130 -136 -246 -306 -55 -80 -132 -184
-172 -231 -41 -48 -106 -132 -145 -187 -39 -55 -82 -112 -94 -128 l-23 -27
-40 21 c-55 29 -53 26 -59 99 -10 130 -28 192 -95 334 -23 48 -41 90 -41 93 0
3 -31 67 -69 142 -114 228 -296 546 -331 581 -11 11 -210 260 -255 320 -27 36
-59 74 -70 86 -70 73 -133 147 -195 229 -53 71 -76 99 -152 179 -121 130 -140
153 -198 231 -64 87 -73 97 -224 252 -76 78 -194 211 -261 295 -68 84 -151
180 -186 213 -161 154 -220 338 -171 530 27 109 127 340 170 393 50 62 349
355 400 392 60 43 125 69 191 78 68 9 330 9 389 0 118 -17 202 -100 300 -293
51 -102 62 -142 76 -290 13 -123 17 -159 22 -166 3 -5 -28 -48 -69 -97 -141
-170 -225 -310 -242 -403 -12 -66 -12 -225 1 -286 20 -100 41 -131 175 -265
106 -105 141 -133 205 -164 l76 -38 142 0 c219 -1 272 22 447 194 180 176 194
209 191 438 -2 134 -4 146 -31 205 -30 64 -36 72 -177 218 -45 48 -92 105
-103 127 -12 23 -30 88 -41 144 -19 101 -62 263 -80 303 -4 11 -21 54 -36 95
-42 116 -131 296 -191 389 -60 93 -291 334 -370 388 -114 77 -229 114 -398
129 -75 6 -195 11 -198 8z m-3476 -8421 c13 -16 12 -17 -3 -4 -10 7 -18 15
-18 17 0 8 8 3 21 -13z"/>
</g>
</svg>
